<?xml version="1.0" encoding="UTF-8"?>
<!DOCTYPE svg PUBLIC "-//W3C//DTD SVG 1.1//EN" "http://www.w3.org/Graphics/SVG/1.1/DTD/svg11.dtd">
<svg version="1.1" xmlns="http://www.w3.org/2000/svg" xmlns:xlink="http://www.w3.org/1999/xlink" x="0" y="0" width="246.137" height="50" viewBox="0, 0, 246.137, 50">
  <g id="Layer_1">
    <path d="M61.052,43.114 C61.282,43.174 61.586,43.199 61.926,43.199 C63.214,43.199 63.978,42.567 63.978,41.462 C63.978,40.37 63.214,39.848 62.047,39.848 C61.586,39.848 61.235,39.896 61.052,39.932 L61.052,43.114 z M59.996,39.18 C60.506,39.082 61.173,39.01 62.023,39.01 C63.067,39.01 63.832,39.253 64.318,39.69 C64.767,40.078 65.046,40.673 65.046,41.401 C65.046,42.142 64.827,42.724 64.403,43.149 C63.844,43.745 62.934,44.048 61.902,44.048 C61.586,44.048 61.295,44.036 61.052,43.975 L61.052,47.253 L59.996,47.253 L59.996,39.18" fill="#FFFFFE"/>
    <path d="M72.427,38.634 L73.496,38.634 L73.496,42.3 L73.52,42.3 C73.69,41.996 73.958,41.717 74.285,41.547 C74.601,41.353 74.977,41.244 75.378,41.244 C76.167,41.244 77.43,41.73 77.43,43.757 L77.43,47.253 L76.362,47.253 L76.362,43.878 C76.362,42.919 76.009,42.13 75.001,42.13 C74.309,42.13 73.776,42.616 73.569,43.199 C73.508,43.344 73.496,43.502 73.496,43.708 L73.496,47.253 L72.427,47.253 L72.427,38.634" fill="#FFFFFE"/>
    <path d="M87.664,46.586 C88.683,46.586 89.448,45.627 89.448,44.291 C89.448,43.296 88.95,42.045 87.687,42.045 C86.437,42.045 85.891,43.211 85.891,44.328 C85.891,45.614 86.619,46.586 87.651,46.586 L87.664,46.586 z M87.627,47.387 C86.049,47.387 84.81,46.221 84.81,44.363 C84.81,42.397 86.109,41.244 87.724,41.244 C89.412,41.244 90.552,42.47 90.552,44.254 C90.552,46.44 89.035,47.387 87.638,47.387 L87.627,47.387" fill="#FFFFFE"/>
    <path d="M99.257,39.969 L99.257,41.378 L100.786,41.378 L100.786,42.191 L99.257,42.191 L99.257,45.36 C99.257,46.088 99.464,46.501 100.058,46.501 C100.35,46.501 100.52,46.477 100.678,46.427 L100.726,47.241 C100.52,47.313 100.192,47.387 99.78,47.387 C99.281,47.387 98.88,47.216 98.626,46.938 C98.335,46.61 98.213,46.088 98.213,45.396 L98.213,42.191 L97.302,42.191 L97.302,41.378 L98.213,41.378 L98.213,40.297 L99.257,39.969" fill="#FFFFFE"/>
    <path d="M110.414,46.586 C111.434,46.586 112.199,45.627 112.199,44.291 C112.199,43.296 111.7,42.045 110.439,42.045 C109.188,42.045 108.642,43.211 108.642,44.328 C108.642,45.614 109.37,46.586 110.402,46.586 L110.414,46.586 z M110.378,47.387 C108.8,47.387 107.561,46.221 107.561,44.363 C107.561,42.397 108.86,41.244 110.474,41.244 C112.163,41.244 113.303,42.47 113.303,44.254 C113.303,46.44 111.786,47.387 110.389,47.387 L110.378,47.387" fill="#FFFFFE"/>
    <path d="M124.69,43.684 C124.69,43.515 124.679,43.356 124.63,43.211 C124.436,42.579 123.926,42.07 123.136,42.07 C122.117,42.07 121.388,42.931 121.388,44.303 C121.388,45.445 121.983,46.415 123.125,46.415 C123.792,46.415 124.387,46.003 124.606,45.31 C124.666,45.141 124.69,44.934 124.69,44.741 L124.69,43.684 z M125.759,46.392 C125.759,47.751 125.48,48.564 124.921,49.087 C124.339,49.609 123.513,49.791 122.773,49.791 C122.069,49.791 121.292,49.62 120.818,49.305 L121.085,48.479 C121.473,48.734 122.08,48.953 122.809,48.953 C123.902,48.953 124.703,48.383 124.703,46.889 L124.703,46.246 L124.679,46.246 C124.364,46.792 123.719,47.229 122.809,47.229 C121.352,47.229 120.308,45.991 120.308,44.351 C120.308,42.361 121.607,41.244 122.966,41.244 C123.986,41.244 124.533,41.766 124.801,42.251 L124.824,42.251 L124.861,41.378 L125.808,41.378 C125.772,41.79 125.759,42.264 125.759,42.98 L125.759,46.392" fill="#FFFFFE"/>
    <path d="M133.602,43.211 C133.602,42.519 133.59,41.924 133.552,41.378 L134.488,41.378 L134.537,42.531 L134.574,42.531 C134.84,41.741 135.496,41.244 136.212,41.244 C136.321,41.244 136.407,41.257 136.502,41.28 L136.502,42.276 C136.382,42.264 136.273,42.251 136.127,42.251 C135.374,42.251 134.84,42.822 134.694,43.611 C134.67,43.77 134.658,43.939 134.658,44.121 L134.658,47.253 L133.59,47.253 L133.602,43.211" fill="#FFFFFE"/>
    <path d="M146.653,44.254 C145.488,44.231 144.165,44.437 144.165,45.578 C144.165,46.282 144.626,46.598 145.159,46.598 C145.937,46.598 146.434,46.112 146.604,45.614 C146.641,45.505 146.653,45.383 146.653,45.274 L146.653,44.254 z M147.697,45.845 C147.697,46.355 147.721,46.853 147.782,47.253 L146.823,47.253 L146.726,46.514 L146.69,46.514 C146.374,46.973 145.73,47.387 144.892,47.387 C143.703,47.387 143.095,46.549 143.095,45.7 C143.095,44.278 144.359,43.502 146.629,43.515 L146.629,43.393 C146.629,42.907 146.495,42.02 145.294,42.033 C144.734,42.033 144.165,42.191 143.751,42.47 L143.508,41.754 C143.995,41.45 144.71,41.244 145.45,41.244 C147.259,41.244 147.697,42.47 147.697,43.648 L147.697,45.845" fill="#FFFFFE"/>
    <path d="M156.546,44.862 C156.546,45.007 156.559,45.165 156.595,45.299 C156.778,46.039 157.432,46.549 158.186,46.549 C159.315,46.549 159.971,45.627 159.971,44.278 C159.971,43.101 159.364,42.093 158.235,42.093 C157.507,42.093 156.814,42.603 156.607,43.405 C156.584,43.551 156.546,43.708 156.546,43.842 L156.546,44.862 z M155.479,43.296 C155.479,42.542 155.466,41.936 155.43,41.378 L156.39,41.378 L156.45,42.385 L156.474,42.385 C156.899,41.656 157.604,41.244 158.549,41.244 C159.982,41.244 161.05,42.445 161.05,44.231 C161.05,46.343 159.752,47.387 158.38,47.387 C157.591,47.387 156.923,47.047 156.571,46.464 L156.546,46.464 L156.546,49.657 L155.479,49.657 L155.479,43.296" fill="#FFFFFE"/>
    <path d="M168.456,38.634 L169.525,38.634 L169.525,42.3 L169.55,42.3 C169.719,41.996 169.986,41.717 170.313,41.547 C170.629,41.353 171.005,41.244 171.407,41.244 C172.195,41.244 173.457,41.73 173.457,43.757 L173.457,47.253 L172.389,47.253 L172.389,43.878 C172.389,42.919 172.038,42.13 171.029,42.13 C170.337,42.13 169.805,42.616 169.598,43.199 C169.537,43.344 169.525,43.502 169.525,43.708 L169.525,47.253 L168.456,47.253 L168.456,38.634" fill="#FFFFFE"/>
    <path d="M181.496,41.378 L182.77,44.849 C182.915,45.238 183.061,45.7 183.157,46.052 L183.182,46.052 C183.292,45.7 183.413,45.251 183.558,44.825 L184.724,41.378 L185.853,41.378 L184.251,45.566 C183.486,47.581 182.964,48.612 182.235,49.256 C181.702,49.705 181.192,49.888 180.925,49.936 L180.657,49.037 C180.925,48.966 181.276,48.794 181.592,48.517 C181.884,48.285 182.235,47.873 182.491,47.327 C182.539,47.216 182.576,47.144 182.576,47.071 C182.576,47.01 182.552,46.926 182.491,46.804 L180.329,41.378 L181.496,41.378" fill="#FFFFFE"/>
    <path d="M44.781,5.28 C44.781,7.743 42.388,10.052 37.605,12.21 C33.737,13.958 29.378,15.233 24.528,16.032 C26.883,16.68 28.061,17.911 28.061,19.724 C28.061,21.364 26.33,22.789 22.872,23.997 C19.786,25.077 16.664,25.617 13.511,25.617 C12.155,25.617 10.899,25.356 9.747,24.833 C8.593,24.31 8.017,23.8 8.017,23.299 C8.017,22.624 8.676,21.982 9.996,21.372 C10.233,21.33 10.351,21.407 10.351,21.602 C9.643,22.06 9.288,22.561 9.288,23.105 C9.288,23.737 10.287,24.052 12.289,24.052 C15.171,24.052 18.325,23.433 21.75,22.195 C25.175,20.958 26.888,19.74 26.888,18.545 C26.888,17.98 26.277,17.491 25.058,17.079 C23.701,16.644 22.022,16.426 20.023,16.426 C19.139,16.426 18.028,16.603 16.69,16.956 C15.351,17.31 14.579,17.486 14.376,17.486 C13.391,17.486 12.902,17.298 12.902,16.92 C12.902,16.675 13.742,16.352 15.422,15.951 C17.103,15.551 18.673,15.351 20.133,15.351 C22.034,15.351 24.903,14.669 28.741,13.305 C32.577,11.942 35.887,10.402 38.671,8.682 C41.897,6.729 43.509,5.052 43.509,3.656 C43.509,2.969 42.865,2.416 41.577,1.997 C40.287,1.578 38.78,1.369 37.05,1.369 C34.881,1.369 32.184,1.639 28.964,2.179 C29.44,2.588 29.677,3.085 29.677,3.667 C29.677,3.754 28.164,4.821 25.138,6.872 C21.195,9.549 17.805,11.972 14.966,14.141 C12.129,16.31 9.485,18.461 7.038,20.597 C4.93,22.389 3.859,23.371 3.825,23.544 L3.978,23.608 C4.692,23.09 5.575,22.507 6.629,21.858 C6.765,21.88 6.883,21.945 6.986,22.052 C6.238,22.913 5.491,23.773 4.742,24.631 C3.383,26.135 2.515,26.888 2.142,26.888 C1.598,26.888 1.105,26.619 0.663,26.081 C0.22,25.608 0,25.18 0,24.792 C0,24.255 1.071,22.956 3.212,20.89 C5.183,18.956 7.461,16.958 10.046,14.894 C15.893,10.251 21.348,6.2 26.414,2.738 C21.224,3.746 15.781,5.152 10.083,6.951 C4.859,8.604 2.249,9.623 2.249,10.009 C2.249,10.115 2.366,10.168 2.604,10.168 C4.094,10.168 8.989,8.494 17.291,5.144 C17.765,5.101 18.034,5.176 18.104,5.367 C17.323,6.027 14.746,7.156 10.37,8.752 C5.892,10.415 3.026,11.244 1.772,11.244 C1.399,11.244 1.044,11.128 0.704,10.893 C0.365,10.657 0.196,10.38 0.196,10.06 C0.196,9.547 2.146,8.501 6.048,6.922 C10.289,5.193 14.785,3.731 19.536,2.535 C25.407,1.041 30.427,0.293 34.601,0.293 C41.388,0.293 44.781,1.956 44.781,5.28" fill="#FFFFFE"/>
    <path d="M44.113,16.751 C44.113,16.666 43.942,16.622 43.606,16.622 C41.55,16.622 39.122,17.473 36.325,19.175 C33.661,20.854 32.331,22.246 32.331,23.343 C32.331,23.948 32.802,24.248 33.746,24.248 C35.027,24.248 37.014,23.463 39.711,21.889 C42.305,20.381 43.604,19.336 43.604,18.755 C43.259,18.453 43.085,18.206 43.085,18.012 C43.085,17.709 43.257,17.419 43.598,17.138 C43.941,16.859 44.113,16.73 44.113,16.751 z M46.458,18.762 C46.695,18.937 46.61,19.032 46.204,19.054 C45.966,19.098 45.591,19.141 45.082,19.184 C43.892,20.549 42.261,21.805 40.186,22.951 C37.772,24.339 35.613,25.031 33.71,25.031 C31.16,25.031 29.886,24.316 29.886,22.886 C29.886,21.673 31.133,20.099 33.628,18.16 C36.121,16.223 38.08,15.253 39.507,15.253 C39.744,15.253 39.981,15.367 40.22,15.595 C40.456,15.824 40.643,15.937 40.78,15.937 C40.881,15.937 41.262,15.905 41.925,15.84 C42.586,15.776 43.087,15.742 43.426,15.742 C45.088,15.742 45.921,16.415 45.921,17.755 C45.881,17.821 45.881,17.887 45.921,17.95 C46.208,18.427 46.387,18.698 46.458,18.762" fill="#FFFFFE"/>
    <path d="M77.746,2.246 C77.746,1.858 77.438,1.663 76.827,1.663 C75.74,1.663 73.206,2.863 69.227,5.262 C65.859,7.273 63.155,9.068 61.117,10.644 C57.239,13.583 54.23,16.047 52.087,18.036 C54.842,17.259 59.705,14.838 66.676,10.773 C74.055,6.45 77.746,3.609 77.746,2.246 z M79.311,1.39 C79.311,3.029 77.385,5.208 73.539,7.924 C70.302,10.231 66.268,12.561 61.434,14.911 C56.94,17.089 53.381,18.534 50.76,19.243 C50.249,19.697 49.567,20.528 48.717,21.735 C47.797,23.071 47.338,23.988 47.338,24.483 C47.338,25.109 47.746,25.421 48.563,25.421 C49.99,25.421 52.031,24.638 54.685,23.067 C57.236,21.563 58.512,20.52 58.512,19.94 C58.233,19.639 58.093,19.381 58.093,19.165 C58.093,18.35 58.515,17.94 59.36,17.94 C60.405,17.94 60.929,18.266 60.929,18.916 C60.929,18.983 60.929,19.059 60.929,19.144 C61.162,19.6 61.308,19.861 61.369,19.925 C61.606,20.12 61.52,20.229 61.114,20.25 C60.908,20.272 60.536,20.316 59.992,20.38 C58.802,21.724 57.187,22.983 55.147,24.154 C52.7,25.52 50.523,26.203 48.62,26.203 C47.498,26.203 46.58,26.014 45.867,25.637 C45.152,25.257 44.796,24.724 44.796,24.031 C44.796,22.323 47.075,19.448 51.637,15.405 C55.926,11.644 60.64,8.195 65.781,5.06 C71.294,1.687 75.242,0 77.625,0 C78.748,0 79.311,0.465 79.311,1.39" fill="#FFFFFE"/>
    <path d="M120.24,3.835 C120.24,2.191 118.095,1.369 113.81,1.369 C111.63,1.369 108.926,1.639 105.694,2.179 C106.169,2.588 106.407,3.085 106.407,3.667 C106.407,3.754 104.895,4.821 101.87,6.87 C97.894,9.569 94.495,11.996 91.673,14.153 L90.177,15.262 C90.754,15.451 91.555,15.546 92.576,15.546 C96.216,15.546 100.316,14.822 104.877,13.372 C109.028,12.054 112.625,10.455 115.671,8.572 C118.716,6.69 120.24,5.112 120.24,3.835 z M121.609,4.788 C121.609,6.362 120.23,8.076 117.477,9.929 C114.723,11.784 111.289,13.313 107.176,14.52 C102.755,15.856 98.42,16.524 94.17,16.524 C93.558,16.524 92.945,16.492 92.335,16.426 C92.673,18.361 93.184,20.024 93.863,21.418 C94.951,23.63 96.361,24.737 98.097,24.737 C99.898,24.737 101.394,24.252 102.584,23.284 C102.956,23.198 103.228,23.274 103.399,23.509 C102.923,24.02 102.278,24.489 101.462,24.916 C100.339,25.515 99.2,25.812 98.044,25.812 C95.495,25.812 93.302,24.769 91.467,22.68 C90.073,21.154 88.985,19.217 88.205,16.871 C83.241,20.888 80.691,23.113 80.555,23.544 L80.708,23.608 C81.421,23.09 82.305,22.507 83.359,21.858 C83.495,21.88 83.614,21.945 83.716,22.052 C82.967,22.913 82.221,23.773 81.472,24.631 C80.112,26.135 79.245,26.888 78.872,26.888 C78.328,26.888 77.835,26.619 77.393,26.081 C76.95,25.608 76.73,25.18 76.73,24.792 C76.73,24.255 77.8,22.956 79.942,20.89 C81.914,18.956 84.192,16.958 86.776,14.894 C92.622,10.251 98.079,6.2 103.144,2.738 C97.955,3.746 92.511,5.152 86.813,6.951 C81.59,8.604 78.979,9.623 78.979,10.009 C78.979,10.115 79.096,10.168 79.335,10.168 C80.824,10.168 85.719,8.494 94.019,5.144 C94.493,5.101 94.763,5.176 94.832,5.367 C94.051,6.027 91.474,7.156 87.1,8.752 C82.622,10.415 79.756,11.244 78.501,11.244 C78.129,11.244 77.773,11.128 77.434,10.893 C77.095,10.657 76.926,10.38 76.926,10.06 C76.926,9.547 78.878,8.501 82.784,6.922 C87.029,5.193 91.53,3.731 96.286,2.535 C102.162,1.041 107.19,0.293 111.368,0.293 C114.831,0.293 117.447,0.725 119.214,1.587 C120.809,2.363 121.609,3.43 121.609,4.788" fill="#FFFFFE"/>
    <path d="M120.854,16.751 C120.854,16.666 120.684,16.622 120.348,16.622 C118.292,16.622 115.863,17.473 113.066,19.175 C110.402,20.854 109.071,22.246 109.071,23.343 C109.071,23.948 109.543,24.248 110.487,24.248 C111.768,24.248 113.755,23.463 116.452,21.889 C119.046,20.381 120.344,19.336 120.344,18.755 C119.999,18.453 119.827,18.206 119.827,18.012 C119.827,17.709 119.998,17.419 120.34,17.138 C120.682,16.859 120.854,16.73 120.854,16.751 z M123.2,18.762 C123.437,18.937 123.351,19.032 122.945,19.054 C122.707,19.098 122.332,19.141 121.824,19.184 C120.633,20.549 119.002,21.805 116.926,22.951 C114.512,24.339 112.354,25.031 110.45,25.031 C107.901,25.031 106.626,24.316 106.626,22.886 C106.626,21.673 107.873,20.099 110.368,18.16 C112.862,16.223 114.821,15.253 116.248,15.253 C116.485,15.253 116.722,15.367 116.96,15.595 C117.197,15.824 117.383,15.937 117.52,15.937 C117.622,15.937 118.003,15.905 118.666,15.84 C119.327,15.776 119.828,15.742 120.168,15.742 C121.829,15.742 122.662,16.415 122.662,17.755 C122.622,17.821 122.622,17.887 122.662,17.95 C122.95,18.427 123.129,18.698 123.2,18.762" fill="#FFFFFE"/>
    <path d="M140.969,18.493 C138.929,20.055 136.753,21.496 134.442,22.82 C131.146,24.684 128.595,25.617 126.794,25.617 C125.535,25.617 124.524,25.374 123.76,24.887 C122.995,24.399 122.613,23.733 122.613,22.886 C122.613,21.069 123.939,19.184 126.594,17.233 C129.011,15.458 131.001,14.568 132.568,14.568 C133.078,14.568 133.665,14.824 134.327,15.331 C134.99,15.838 135.324,16.243 135.324,16.545 C135.324,16.934 135.138,17.237 134.77,17.453 C134.402,17.67 134.049,17.777 133.715,17.777 C133.614,17.777 133.563,17.703 133.563,17.555 C133.563,17.493 133.596,17.367 133.662,17.178 C133.726,16.988 133.759,16.853 133.759,16.767 C133.759,16.41 133.621,16.231 133.35,16.231 C132.017,16.231 130.36,17.03 128.379,18.628 C126.294,20.335 125.253,21.935 125.253,23.423 C125.253,24.364 125.847,24.835 127.039,24.835 C128.536,24.835 130.933,23.875 134.232,21.953 C136.886,20.386 138.98,18.961 140.509,17.681 C140.815,17.681 141.001,17.778 141.071,17.974 C141.138,18.148 141.105,18.321 140.969,18.493" fill="#FFFFFE"/>
    <path d="M167.55,2.251 C167.55,1.859 167.243,1.663 166.634,1.663 C164.531,1.663 161.055,3.329 156.206,6.663 C152.612,9.147 149.628,11.489 147.254,13.689 C152.577,12.207 156.848,10.585 160.073,8.82 C165.055,6.119 167.55,3.928 167.55,2.251 z M140.931,20.918 C140.759,20.898 140.606,20.887 140.472,20.887 C140.233,20.887 140.165,20.887 140.268,20.887 C140.403,20.909 140.625,20.918 140.931,20.918 z M152.296,18.006 C152.296,17.41 151.788,17.111 150.773,17.111 C149.927,17.111 148.033,17.601 145.089,18.582 C142.652,19.413 140.926,20.063 139.911,20.531 C141.705,20.531 144.216,20.229 147.449,19.621 C150.68,19.013 152.296,18.475 152.296,18.006 z M169.114,1.784 C169.114,4.012 166.259,6.618 160.552,9.602 C157.324,11.31 152.466,13.051 145.976,14.824 C144.412,16.144 142.901,17.483 141.44,18.847 C142.219,18.29 143.676,17.597 145.812,16.762 C148.25,15.821 150.097,15.351 151.351,15.351 C152.13,15.351 152.824,15.638 153.435,16.209 C154.044,16.781 154.35,17.305 154.35,17.778 C154.35,18.426 153.3,19.074 151.201,19.72 C149.305,20.304 147.004,20.756 144.296,21.079 C144.907,21.297 145.519,21.738 146.132,22.407 C146.88,23.227 147.44,23.745 147.815,23.961 C148.596,24.479 149.634,24.737 150.926,24.737 C151.877,24.737 152.88,24.34 153.934,23.544 C154.104,23.609 154.19,23.673 154.19,23.737 L154.19,23.9 C153.067,24.657 152.37,25.101 152.098,25.23 C151.146,25.748 150.211,26.008 149.294,26.008 C148.274,26.008 147.44,25.727 146.795,25.165 C146.523,24.927 146.064,24.334 145.419,23.382 C144.84,22.54 144.262,21.945 143.685,21.599 C143.48,21.471 143.157,21.351 142.716,21.243 C141.252,21.396 139.91,21.471 138.687,21.471 C136.851,23.243 135.354,24.789 134.199,26.106 C133.554,26.106 133.23,25.878 133.23,25.424 C133.23,24.907 134.523,23.241 137.105,20.43 C140.978,16.216 145.258,12.237 149.949,8.497 C157.016,2.899 162.555,0.098 166.565,0.098 C167.11,0.098 167.671,0.293 168.247,0.682 C168.825,1.071 169.114,1.44 169.114,1.784" fill="#FFFFFE"/>
    <path d="M166.561,16.775 C166.561,16.413 166.133,16.231 165.277,16.231 C163.874,16.231 162.061,17.222 159.837,19.203 C161.068,19.032 162.523,18.628 164.2,17.988 C165.774,17.391 166.561,16.988 166.561,16.775 z M173.91,18.493 C172.278,19.773 170.391,21.02 168.249,22.234 C164.34,24.489 161.163,25.617 158.716,25.617 C157.456,25.617 156.445,25.374 155.681,24.887 C154.915,24.399 154.534,23.733 154.534,22.886 C154.534,21.069 155.86,19.184 158.515,17.233 C160.93,15.458 162.921,14.568 164.487,14.568 C164.862,14.568 165.235,14.662 165.61,14.848 C165.985,15.035 166.342,15.206 166.682,15.358 C167.021,15.512 167.379,15.665 167.754,15.819 C168.196,16.039 168.418,16.292 168.418,16.576 C168.418,17.278 167.156,18.101 164.635,19.044 C162.489,19.835 160.428,20.405 158.451,20.754 C157.598,21.787 157.174,22.674 157.174,23.42 C157.174,24.364 157.768,24.835 158.96,24.835 C160.829,24.835 163.466,23.907 166.868,22.052 C169.556,20.574 171.75,19.117 173.452,17.681 C173.757,17.681 173.943,17.778 174.012,17.974 C174.079,18.148 174.046,18.321 173.91,18.493" fill="#FFFFFE"/>
    <path d="M196.265,5.472 C195.654,5.495 194.821,5.833 193.768,6.486 C193.461,6.987 193.223,7.235 193.054,7.235 C192.918,7.235 192.687,7.112 192.365,6.864 C192.042,6.617 191.881,6.438 191.881,6.33 C191.881,6.286 192.11,5.969 192.569,5.376 C193.027,4.784 193.257,4.316 193.257,3.971 C193.257,3.476 192.969,3.227 192.391,3.227 C191.507,3.227 190.215,3.992 188.516,5.523 C187.324,6.602 186.356,7.636 185.608,8.625 C184.282,10.286 182.26,12.798 179.54,16.16 C180.254,16.16 181.971,16.322 184.691,16.644 C185.063,16.688 185.251,16.743 185.251,16.807 C185.251,17.109 185.013,17.248 184.538,17.227 L178.928,16.871 C176.786,19.484 173.471,23.324 168.986,28.396 C165.144,32.41 161.931,34.417 159.347,34.417 C158.362,34.417 157.614,34.133 157.104,33.569 C156.663,33.091 156.458,32.525 156.491,31.875 L156.491,31.483 C156.526,31.005 156.9,30.212 157.613,29.105 C158.395,27.887 159.077,27.279 159.655,27.279 C159.892,27.279 160.029,27.377 160.062,27.572 C158.595,29.05 157.86,30.516 157.86,31.972 C157.86,33.146 158.369,33.732 159.387,33.732 C160.981,33.732 163.881,31.315 168.085,26.483 C169.34,25.039 171.867,21.877 175.665,17.001 C174.066,16.958 172.181,17.141 170.004,17.55 C169.597,17.594 169.393,17.454 169.393,17.13 C169.393,16.915 169.63,16.785 170.107,16.743 C172.147,16.355 174.254,16.128 176.431,16.063 C177.552,14.532 179.644,12.009 182.703,8.494 C186.441,4.527 189.603,2.542 192.187,2.542 C193.003,2.542 193.597,2.907 193.972,3.636 C194.277,4.215 194.378,4.794 194.277,5.372 C194.855,5.156 195.331,5.005 195.706,4.918 C196.216,5.005 196.402,5.189 196.265,5.472" fill="#FFFFFE"/>
    <path d="M193.433,16.775 C193.433,16.413 193.005,16.231 192.149,16.231 C190.747,16.231 188.934,17.222 186.709,19.203 C187.941,19.032 189.395,18.628 191.072,17.988 C192.647,17.391 193.433,16.988 193.433,16.775 z M200.783,18.493 C199.151,19.773 197.265,21.02 195.122,22.234 C191.214,24.489 188.035,25.617 185.588,25.617 C184.329,25.617 183.318,25.374 182.554,24.887 C181.788,24.399 181.407,23.733 181.407,22.886 C181.407,21.069 182.733,19.184 185.389,17.233 C187.803,15.458 189.794,14.568 191.359,14.568 C191.734,14.568 192.108,14.662 192.483,14.848 C192.857,15.035 193.214,15.206 193.555,15.358 C193.894,15.512 194.251,15.665 194.627,15.819 C195.069,16.039 195.291,16.292 195.291,16.576 C195.291,17.278 194.028,18.101 191.508,19.044 C189.362,19.835 187.3,20.405 185.324,20.754 C184.471,21.787 184.047,22.674 184.047,23.42 C184.047,24.364 184.641,24.835 185.832,24.835 C187.702,24.835 190.34,23.907 193.741,22.052 C196.429,20.574 198.622,19.117 200.324,17.681 C200.63,17.681 200.816,17.778 200.885,17.974 C200.952,18.148 200.918,18.321 200.783,18.493" fill="#FFFFFE"/>
    <path d="M223.354,2.963 C223.354,2.553 223.167,2.347 222.794,2.347 C220.547,2.347 216.842,4.359 211.671,8.381 C207.251,11.778 204.239,14.492 202.641,16.524 C205.088,15.206 209.187,12.87 214.937,9.517 C217.147,8.198 219.102,6.867 220.802,5.526 C222.503,4.184 223.354,3.33 223.354,2.963 z M225.211,1.944 C225.211,3.644 221.835,6.539 215.082,10.628 C213.418,11.619 208.784,14.181 201.183,18.313 C199.146,21.069 198.128,22.899 198.128,23.802 C198.128,24.556 198.703,24.932 199.851,24.932 C200.662,24.932 201.336,24.794 201.878,24.515 C202.045,24.473 202.13,24.525 202.13,24.673 L202.08,24.862 C201.195,25.366 200.141,25.617 198.918,25.617 C197.218,25.617 196.368,24.983 196.368,23.712 C196.368,23.259 196.469,22.776 196.674,22.257 C197.59,20.126 199.613,17.349 202.739,13.926 C206.033,10.308 209.431,7.283 212.931,4.851 C217.007,2.009 220.421,0.587 223.173,0.587 C224.532,0.587 225.211,1.039 225.211,1.944" fill="#FFFFFE"/>
    <path d="M233.297,2.963 C233.297,2.553 233.109,2.347 232.737,2.347 C230.491,2.347 226.785,4.359 221.614,8.381 C217.193,11.778 214.182,14.492 212.585,16.524 C215.032,15.206 219.131,12.87 224.879,9.517 C227.09,8.198 229.046,6.867 230.746,5.526 C232.446,4.184 233.297,3.33 233.297,2.963 z M235.155,1.944 C235.155,3.644 231.777,6.539 225.024,10.628 C223.361,11.619 218.727,14.181 211.125,18.313 C209.088,21.069 208.072,22.899 208.072,23.802 C208.072,24.556 208.646,24.932 209.794,24.932 C210.604,24.932 211.279,24.794 211.821,24.515 C211.988,24.473 212.074,24.525 212.074,24.673 L212.024,24.862 C211.139,25.366 210.085,25.617 208.862,25.617 C207.161,25.617 206.312,24.983 206.312,23.712 C206.312,23.259 206.412,22.776 206.617,22.257 C207.534,20.126 209.557,17.349 212.682,13.926 C215.975,10.308 219.374,7.283 222.873,4.851 C226.949,2.009 230.364,0.587 233.117,0.587 C234.475,0.587 235.155,1.039 235.155,1.944" fill="#FFFFFE"/>
    <path d="M226.985,16.775 C226.985,16.413 226.557,16.231 225.701,16.231 C224.299,16.231 222.485,17.222 220.261,19.203 C221.493,19.032 222.947,18.628 224.625,17.988 C226.198,17.391 226.985,16.988 226.985,16.775 z M234.335,18.493 C232.703,19.773 230.816,21.02 228.674,22.234 C224.765,24.489 221.587,25.617 219.14,25.617 C217.881,25.617 216.87,25.374 216.106,24.887 C215.34,24.399 214.958,23.733 214.958,22.886 C214.958,21.069 216.284,19.184 218.94,17.233 C221.355,15.458 223.346,14.568 224.912,14.568 C225.286,14.568 225.66,14.662 226.034,14.848 C226.409,15.035 226.766,15.206 227.107,15.358 C227.446,15.512 227.804,15.665 228.18,15.819 C228.621,16.039 228.843,16.292 228.843,16.576 C228.843,17.278 227.58,18.101 225.059,19.044 C222.913,19.835 220.853,20.405 218.875,20.754 C218.023,21.787 217.598,22.674 217.598,23.42 C217.598,24.364 218.192,24.835 219.384,24.835 C221.254,24.835 223.891,23.907 227.294,22.052 C229.98,20.574 232.174,19.117 233.876,17.681 C234.182,17.681 234.368,17.778 234.437,17.974 C234.504,18.148 234.47,18.321 234.335,18.493" fill="#FFFFFE"/>
    <path d="M245.849,20.882 C244.726,21.784 243.297,22.698 241.562,23.62 C239.18,24.887 237.19,25.52 235.592,25.52 C234.98,25.52 234.436,25.386 233.958,25.117 C233.482,24.851 233.246,24.491 233.246,24.04 C233.246,23.441 234.14,22.444 235.934,21.05 C237.726,19.657 238.623,18.843 238.623,18.606 C238.623,18.456 238.349,18.382 237.806,18.382 C237.567,18.382 237.065,18.4 236.297,18.437 C235.531,18.474 234.909,18.49 234.433,18.49 C232.727,18.49 231.877,18.11 231.877,17.348 C231.877,16.825 232.616,16.069 234.095,15.077 C235.574,14.087 236.822,13.591 237.842,13.591 C238.897,13.591 239.423,13.777 239.423,14.15 C239.423,14.413 238.8,14.999 237.557,15.908 C236.312,16.817 235.69,17.305 235.69,17.369 C235.69,17.523 236.365,17.6 237.718,17.6 C239.95,17.6 241.067,18.144 241.067,19.23 C241.067,19.708 240.171,20.62 238.379,21.968 C236.585,23.314 235.69,24.085 235.69,24.281 C235.69,24.586 235.894,24.737 236.305,24.737 C237.332,24.737 238.871,24.224 240.923,23.194 C242.018,22.647 243.643,21.683 245.797,20.304 C246.205,20.304 246.222,20.497 245.849,20.882" fill="#FFFFFE"/>
    <path d="M9.324,37.449 C9.324,37.449 107.098,16.329 225.992,35.103 C225.992,35.103 116.485,21.023 14.799,40.578 L9.324,37.449" fill="#FFFFFE"/>
  </g>
</svg>
